<?xml version="1.0" standalone="no"?>
<!DOCTYPE svg PUBLIC "-//W3C//DTD SVG 20010904//EN"
 "http://www.w3.org/TR/2001/REC-SVG-20010904/DTD/svg10.dtd">
<svg version="1.0" xmlns="http://www.w3.org/2000/svg"
 width="1024.000000pt" height="1024.000000pt" viewBox="0 0 1024.000000 1024.000000"
 preserveAspectRatio="xMidYMid meet">
<metadata>
Created by potrace 1.14, written by Peter Selinger 2001-2017
</metadata>
<g transform="translate(0.000000,1024.000000) scale(0.100000,-0.100000)"
fill="#000000" stroke="none">
<path d="M1330 8066 c-63 -21 -96 -44 -201 -143 -210 -200 -287 -279 -302
-313 -52 -117 -50 -211 7 -320 10 -19 209 -226 442 -460 1049 -1053 1694
-1706 1691 -1713 -1 -5 -475 -483 -1052 -1063 -831 -835 -1057 -1067 -1083
-1114 -60 -106 -54 -242 13 -340 14 -19 90 -98 171 -175 200 -192 212 -202
269 -232 43 -23 63 -27 140 -27 79 -1 97 3 145 27 46 22 277 249 1406 1379
1470 1472 1396 1392 1407 1517 5 59 -10 138 -38 191 -10 19 -628 645 -1374
1391 -1091 1090 -1366 1360 -1405 1379 -57 27 -178 35 -236 16z"/>
<path d="M4928 3147 c-80 -24 -155 -87 -193 -162 l-30 -59 -3 -286 c-2 -262 0
-292 17 -343 39 -112 132 -191 250 -211 50 -8 626 -11 2132 -9 1135 1 2078 3
2094 6 122 17 214 89 261 205 22 54 23 68 23 328 0 285 -4 318 -46 387 -50 80
-105 123 -193 148 -36 10 -468 13 -2149 13 -1995 1 -2108 0 -2163 -17z"/>
</g>
</svg>
